#!OML:ASF H:\Terrain\Patient Classification 1\Animal2\Wednesday\Animal2.ASF
:FULLY-SPECIFIED
:DEGREES
2637
root 11.1285 18.1061 6.88353 3.59324 5.36511 3.02339
lowerback 6.48112 -1.82558 5.28084
upperback -0.303316 -1.99087 0.750816
thorax -4.10834 -1.08984 -1.98396
lowerneck 9.7706 14.5376 18.7143
upperneck -3.10583 21.6573 -28.6687
head 2.94207 11.5769 -11.2847
rclavicle 2.16675e-014 -3.26007e-014
rhumerus -41.8556 10.3249 -80.306
rradius 125.737
rwrist 0.677868
rhand -20.8492 35.0742
rfingers 7.12502
rthumb 5.51992 5.16614
lclavicle 2.16675e-014 -3.26007e-014
lhumerus -43.9417 -21.2869 71.2388
lradius 126.447
lwrist 34.1581
lhand -2.69058 5.31463
lfingers 7.12502
lthumb 23.0109 33.961
rfemur -15.4108 -11.2664 19.0679
rtibia 21.0206
rfoot -15.4227 5.44057
rtoes 25.7881
lfemur -18.1712 -3.26185 -21.6339
ltibia 25.1861
lfoot -13.732 -2.10942
ltoes -26.4577
2638
root 11.1448 18.1057 6.87152 3.24972 5.86243 3.38629
lowerback 6.55827 -1.74874 5.1221
upperback -0.177309 -1.90591 0.609815
thorax -4.01324 -1.04179 -2.05076
lowerneck 10.9792 14.8867 18.925
upperneck -3.45141 22.3158 -29.2446
head 2.90972 12.0214 -11.5358
rclavicle -1.8487e-014 1.11319e-014
rhumerus -42.0169 10.1899 -80.3135
rradius 125.84
rwrist 0.930561
rhand -20.5661 34.6606
rfingers 7.12502
rthumb 5.79327 4.75981
lclavicle -1.8487e-014 1.11319e-014
lhumerus -43.6783 -21.6376 71.1577
lradius 126.303
lwrist 33.8795
lhand -2.14477 5.02588
lfingers 7.12502
lthumb 23.5345 33.6061
rfemur -14.9385 -11.731 18.4977
rtibia 21.0478
rfoot -15.4842 5.46422
rtoes 25.8021
lfemur -17.6857 -3.53711 -21.9752
ltibia 25.3448
lfoot -13.9289 -1.60878
ltoes -28.8703
2639
root 11.1536 18.1048 6.857 3.02759 6.29191 3.46488
lowerback 6.51031 -1.65914 5.10113
upperback -0.132087 -1.79323 0.59854
thorax -3.93028 -0.98313 -2.06464
lowerneck 12.6444 15.0956 19.2064
upperneck -4.10534 22.7985 -30.0271
head 2.71586 12.4354 -11.9623
rclavicle 7.85199e-015 3.18055e-015
rhumerus -42.2114 10.1273 -80.2685
rradius 125.829
rwrist 1.17879
rhand -20.3743 34.6188
rfingers 7.12502
rthumb 5.97842 4.72313
lclavicle 7.85199e-015 3.18055e-015
lhumerus -43.4537 -22.0266 71.2346
lradius 126.107
lwrist 33.6731
lhand -2.09416 4.90702
lfingers 7.12502
lthumb 23.5831 33.481
rfemur -14.6729 -11.7665 18.3069
rtibia 21.0929
rfoot -15.6149 5.04018
rtoes 25.4715
lfemur -17.4044 -3.63775 -21.9384
ltibia 25.5202
lfoot -13.9251 -1.3939
ltoes -29.1873
2640
root 11.1598 18.1084 6.83592 2.9937 6.61927 3.48851
lowerback 6.4804 -1.6054 5.0823
upperback -0.227112 -1.72246 0.587526
thorax -4.00686 -0.951134 -2.07199
lowerneck 13.4509 15.5043 19.4626
upperneck -3.80241 23.6169 -30.2688
head 2.94632 12.8992 -12.0194
rclavicle -2.31584e-014 2.70347e-014
rhumerus -42.5545 10.419 -80.6172
rradius 125.845
rwrist 1.00642
rhand -20.884 34.7082
rfingers 7.12502
rthumb 5.48637 4.79926
lclavicle -2.31584e-014 2.70347e-014
lhumerus -43.5474 -22.1932 71.284
lradius 126.123
lwrist 33.4312
lhand -1.92758 4.86779
lfingers 7.12502
lthumb 23.7429 33.4211
rfemur -14.6091 -11.55 18.2337
rtibia 21.0073
rfoot -15.6851 4.44811
rtoes 25.0339
lfemur -17.3758 -3.47832 -21.816
ltibia 25.7542
lfoot -13.9281 -1.61496
ltoes -27.756
2641
root 11.1682 18.1144 6.82036 2.91914 6.80712 3.49605
lowerback 6.3881 -1.4906 5.11993
upperback -0.247779 -1.57467 0.521279
thorax -3.96827 -0.879011 -2.17889
lowerneck 13.267 16.2073 19.5851
upperneck -2.56391 24.8523 -29.8422
head 3.5984 13.4341 -11.6046
rclavicle -1.5704e-014 2.38542e-015
rhumerus -42.8028 10.5727 -81.0183
rradius 125.901
rwrist 0.714969
rhand -21.1505 34.5853
rfingers 7.12502
rthumb 5.22903 4.6698
lclavicle -1.5704e-014 2.38542e-015
lhumerus -43.5299 -22.4357 71.1801
lradius 126.193
lwrist 33.3845
lhand -1.664 4.8851
lfingers 7.12502
lthumb 23.9956 33.4053
rfemur -14.392 -10.9929 18.135
rtibia 20.7578
rfoot -15.6464 3.7836
rtoes 25.0733
lfemur -17.2853 -3.38391 -21.6801
ltibia 26.0566
lfoot -14.0146 -1.40305
ltoes -28.3489
2642
root 11.1785 18.122 6.80991 2.79773 6.97613 3.46801
lowerback 6.12746 -1.35249 5.20695
upperback -0.0981588 -1.4089 0.4383
thorax -3.65734 -0.789853 -2.33797
lowerneck 13.0979 16.9323 19.635
upperneck -1.60212 26.0409 -29.3906
head 4.14214 13.9547 -11.1804
rclavicle 1.98785e-014 1.51076e-014
rhumerus -42.6937 10.5335 -81.205
rradius 125.895
rwrist 0.37224
rhand -20.6224 34.7348
rfingers 7.12502
rthumb 5.73888 4.83247
lclavicle 1.98785e-014 1.51076e-014
lhumerus -42.9157 -22.7087 70.8814
lradius 125.97
lwrist 33.3743
lhand -1.43872 4.81871
lfingers 7.12502
lthumb 24.2116 33.3103
rfemur -14.0595 -10.3821 18.0373
rtibia 20.4396
rfoot -15.5225 3.10371
rtoes 25.436
lfemur -17.1059 -3.45193 -21.4911
ltibia 26.3807
lfoot -14.1899 -1.06098
ltoes -28.4777
2643
root 11.1875 18.1281 6.79587 2.63418 7.2483 3.19371
lowerback 5.93505 -1.28216 5.49781
upperback 0.0403219 -1.31155 0.443145
thorax -3.40426 -0.737956 -2.51063
lowerneck 13.4437 17.451 19.7576
upperneck -1.13781 26.9379 -29.2771
head 4.44847 14.4005 -11.004
rclavicle 2.10712e-014 -1.59028e-015
rhumerus -42.5251 10.6219 -81.4073
rradius 125.773
rwrist 0.142852
rhand -20.2227 34.9307
rfingers 7.12502
rthumb 6.12484 5.03922
lclavicle 2.10712e-014 -1.59028e-015
lhumerus -42.3417 -22.8719 70.6097
lradius 125.789
lwrist 33.2458
lhand -0.965715 4.74409
lfingers 7.12502
lthumb 24.6651 33.1745
rfemur -13.7249 -10.083 18.236
rtibia 20.1447
rfoot -15.2925 2.6396
rtoes 25.7537
lfemur -16.8958 -3.41888 -21.0182
ltibia 26.659
lfoot -14.3016 -0.82682
ltoes -28.0087
2644
root 11.201 18.1303 6.77829 2.52798 7.54343 2.98066
lowerback 5.77098 -1.19396 5.81366
upperback 0.0762753 -1.18694 0.390016
thorax -3.27215 -0.677568 -2.75738
lowerneck 13.9811 17.8525 20.0147
upperneck -0.652218 27.722 -29.1593
head 4.72191 14.8052 -10.8859
rclavicle -6.26172e-015 -2.22639e-014
rhumerus -42.4979 10.7407 -81.6577
rradius 125.606
rwrist 0.296759
rhand -20.5642 34.8292
rfingers 7.12502
rthumb 5.79509 4.92841
lclavicle -6.26172e-015 -2.22639e-014
lhumerus -42.0773 -23.1303 70.4587
lradius 125.797
lwrist 33.0838
lhand -0.469199 4.81542
lfingers 7.12502
lthumb 25.1409 33.18
rfemur -13.4642 -10.1378 18.3951
rtibia 19.8296
rfoot -15.0194 2.53567
rtoes 25.939
lfemur -16.7497 -3.3793 -20.6188
ltibia 26.9266
lfoot -14.3681 -0.527456
ltoes -27.6071
2645
root 11.2162 18.1317 6.76041 2.52276 7.86028 3.1023
lowerback 5.5853 -1.11072 5.80942
upperback 0.0538348 -1.0934 0.249993
thorax -3.18518 -0.630483 -2.91121
lowerneck 14.5546 18.2981 20.0887
upperneck -0.260382 28.4944 -28.8123
head 4.89228 15.2019 -10.6786
rclavicle -3.07122e-014 4.77083e-015
rhumerus -42.4479 10.9874 -81.8816
rradius 125.494
rwrist 0.561504
rhand -20.9635 34.5917
rfingers 7.12502
rthumb 5.40961 4.68074
lclavicle -3.07122e-014 4.77083e-015
lhumerus -41.8751 -23.3852 70.3469
lradius 125.779
lwrist 33.0213
lhand -0.360435 4.80441
lfingers 7.12502
lthumb 25.2451 33.1543
rfemur -13.2744 -10.0998 18.1746
rtibia 19.4805
rfoot -14.8465 2.34702
rtoes 26.7412
lfemur -16.6819 -3.28335 -20.5856
ltibia 27.196
lfoot -14.5034 -0.251583
ltoes -28.1443
2646
root 11.2285 18.1339 6.74462 2.48194 8.12376 3.0909
lowerback 5.39385 -1.03206 5.79429
upperback 0.0704589 -1.00364 0.246417
thorax -3.05158 -0.581806 -2.91694
lowerneck 15.2135 18.7264 19.9287
upperneck -0.183189 29.1522 -28.576
head 4.90979 15.563 -10.525
rclavicle -1.63997e-014 -2.38542e-014
rhumerus -42.3233 11.309 -82.0128
rradius 125.301
rwrist 1.05469
rhand -20.8097 34.968
rfingers 7.12502
rthumb 5.55812 5.06085
lclavicle -1.63997e-014 -2.38542e-014
lhumerus -41.6118 -23.4711 70.3211
lradius 125.728
lwrist 33.0119
lhand -0.364576 4.6042
lfingers 7.12502
lthumb 25.2411 32.9547
rfemur -13.0887 -9.91174 18.1054
rtibia 19.1805
rfoot -14.7133 2.05496
rtoes 27.7679
lfemur -16.5724 -3.01094 -20.385
ltibia 27.4189
lfoot -14.4632 -0.0306219
ltoes -28.6704
2647
root 11.2399 18.1379 6.73138 2.38808 8.35033 2.91456
lowerback 5.2529 -0.904454 5.91438
upperback 0.0636243 -0.834591 0.29054
thorax -2.96475 -0.496963 -2.95409
lowerneck 15.7688 19.0308 19.871
upperneck 0.0731093 29.6865 -28.4073
head 4.99374 15.8533 -10.4164
rclavicle 2.27608e-014 -2.14687e-014
rhumerus -42.336 11.3832 -82.0735
rradius 124.927
rwrist 1.61427
rhand -20.0303 36.0093
rfingers 7.12502
rthumb 6.31053 6.1233
lclavicle 2.27608e-014 -2.14687e-014
lhumerus -41.3011 -23.6144 70.3485
lradius 125.676
lwrist 32.9264
lhand -0.170296 4.59522
lfingers 7.12502
lthumb 25.4272 32.9193
rfemur -12.8474 -9.70216 18.2352
rtibia 18.8991
rfoot -14.6476 1.52336
rtoes 27.197
lfemur -16.3853 -2.7572 -19.9798
ltibia 27.6385
lfoot -14.4285 -0.207128
ltoes -27.4723
2648
root 11.2547 18.1439 6.71765 2.34618 8.63794 2.75197
lowerback 5.12792 -0.811239 6.13223
upperback -0.0534172 -0.703464 0.246596
thorax -3.00709 -0.439069 -3.13285
lowerneck 16.3655 19.2493 20.0104
upperneck 0.493756 30.1839 -28.28
head 5.15099 16.1254 -10.3515
rclavicle 2.13694e-015 -2.38542e-015
rhumerus -42.5288 11.4679 -82.1999
rradius 124.638
rwrist 1.85629
rhand -19.4766 36.1693
rfingers 7.12502
rthumb 6.84509 6.3
lclavicle 2.13694e-015 -2.38542e-015
lhumerus -41.1366 -23.8292 70.3033
lradius 125.548
lwrist 32.9196
lhand 0.037186 4.56436
lfingers 7.12502
lthumb 25.626 32.86
rfemur -12.6417 -9.57517 18.3443
rtibia 18.6078
rfoot -14.4693 0.932826
rtoes 25.8656
lfemur -16.2316 -2.65127 -19.5945
ltibia 27.8427
lfoot -14.5659 -0.124147
ltoes -27.6144
2649
root 11.2696 18.1464 6.69424 2.32899 8.86558 2.52194
lowerback 5.05889 -0.765926 6.43668
upperback -0.198972 -0.626039 0.198694
thorax -3.11632 -0.412266 -3.35936
lowerneck 17.1035 19.4956 20.136
upperneck 0.704855 30.6957 -28.2126
head 5.23776 16.4232 -10.3228
rclavicle -6.36111e-015 1.35174e-014
rhumerus -42.7391 11.7601 -82.3832
rradius 124.56
rwrist 2.09708
rhand -19.6489 35.9236
rfingers 7.12502
rthumb 6.67878 6.04895
lclavicle -6.36111e-015 1.35174e-014
lhumerus -41.0899 -23.9351 70.2235
lradius 125.428
lwrist 32.8907
lhand -0.0989713 4.3681
lfingers 7.12502
lthumb 25.4956 32.6824
rfemur -12.5779 -9.28495 18.5265
rtibia 18.3657
rfoot -14.1617 0.414977
rtoes 25.2078
lfemur -16.1649 -2.56218 -19.1201
ltibia 27.9804
lfoot -14.6559 0.275841
ltoes -28.174
